# xmcd
#
# Track frame offsets: 
#        150
#        8881
#        22421
#        38886
#        58557
#        74911
#        91224
#        106812
#        124010
#        137662
#        156050
#        158453
#        176908
#        195419
#        210024
#        224489
#
# Disc length: 3150 seconds
#
# Revision: 0
# Processed by: cddbd v1.4PL0 Copyright (c) Steve Scherf et al.
# Submitted via: ExactAudioCopy v0.90b4
#
DISCID=db0c4c10
DTITLE=Tche Guri - "Ao Vivo" 12 Anos 12 Sucessos
DYEAR=2002
DGENRE=Country
TTITLE0=Abertura
TTITLE1=Não Vá
TTITLE2=Quando a Gaita Roncar
TTITLE3=Promessa Pra Prendinha - Fandango "Taquitá"
TTITLE4=Roda De Chimarrão
TTITLE5=Vaneirinha Das Prendas
TTITLE6=Baile Das Negra Touro
TTITLE7=Onde Anda O Meu Amor
TTITLE8=Bonitão Do Bailão
TTITLE9=Linda Mulher
TTITLE10=Vinheta
TTITLE11=Guria
TTITLE12=Recadinho
TTITLE13=Maria Fumaça
TTITLE14=No Vai E Vem Da Vanera
TTITLE15=Tá Ligado
EXTD=
EXTT0=
EXTT1=
EXTT2=
EXTT3=
EXTT4=
EXTT5=
EXTT6=
EXTT7=
EXTT8=
EXTT9=
EXTT10=
EXTT11=
EXTT12=
EXTT13=
EXTT14=
EXTT15=
PLAYORDER=
